<svg width="48" height="53" viewBox="0 0 48 53" fill="none" xmlns="http://www.w3.org/2000/svg">
<path d="M0.406547 52.9791C0.378877 52.9791 0.365043 52.9652 0.365043 52.9374C0.365043 52.9263 0.366426 52.911 0.369193 52.8915C0.37196 52.8693 0.378877 52.8498 0.389945 52.8331C0.481254 52.822 0.54766 52.797 0.589164 52.758C0.633435 52.7163 0.655571 52.6426 0.655571 52.5369V50.4841C0.655571 50.4118 0.650037 50.3589 0.638969 50.3256C0.630668 50.2922 0.607149 50.2713 0.568412 50.263C0.532442 50.2518 0.47157 50.2463 0.385795 50.2463C0.385795 50.2324 0.387178 50.2143 0.389945 50.192C0.392712 50.1698 0.395479 50.1517 0.398246 50.1378C0.406547 50.1072 0.416231 50.0905 0.427299 50.0877C0.441133 50.0822 0.449434 50.0794 0.452201 50.0794H1.15362C1.18129 50.0794 1.19512 50.0933 1.19512 50.1211C1.19512 50.1322 1.19236 50.1489 1.18682 50.1712C1.18129 50.1906 1.17299 50.2087 1.16192 50.2254C1.06784 50.2393 1.00144 50.2644 0.962701 50.3005C0.923964 50.3339 0.904595 50.3993 0.904595 50.4966V51.3561H2.48175V50.4841C2.48175 50.4118 2.47621 50.3589 2.46515 50.3256C2.45685 50.2922 2.43333 50.2713 2.39459 50.263C2.35862 50.2518 2.29775 50.2463 2.21197 50.2463C2.21197 50.2324 2.21336 50.2143 2.21612 50.192C2.21889 50.1698 2.22166 50.1517 2.22442 50.1378C2.23272 50.1072 2.24241 50.0905 2.25348 50.0877C2.26731 50.0822 2.27561 50.0794 2.27838 50.0794H2.9798C3.00747 50.0794 3.0213 50.0933 3.0213 50.1211C3.0213 50.1322 3.01853 50.1489 3.013 50.1712C3.00747 50.1906 2.99917 50.2087 2.9881 50.2254C2.89402 50.2393 2.82762 50.2644 2.78888 50.3005C2.75014 50.3339 2.73077 50.3993 2.73077 50.4966V52.5369C2.73077 52.6426 2.73631 52.7135 2.74737 52.7497C2.76121 52.783 2.79441 52.8025 2.84698 52.8081C2.86635 52.8109 2.89264 52.8122 2.92584 52.8122C2.96181 52.8122 2.99363 52.8122 3.0213 52.8122C3.0213 52.8262 3.01992 52.8442 3.01715 52.8665C3.01715 52.8887 3.01438 52.9068 3.00885 52.9207C3.00055 52.9485 2.99086 52.9652 2.9798 52.9708C2.96873 52.9764 2.96043 52.9791 2.95489 52.9791H2.23272C2.20505 52.9791 2.19122 52.9652 2.19122 52.9374C2.19122 52.9263 2.1926 52.911 2.19537 52.8915C2.19814 52.8693 2.20505 52.8498 2.21612 52.8331C2.30743 52.822 2.37384 52.797 2.41534 52.758C2.45961 52.7163 2.48175 52.6426 2.48175 52.5369V51.5439H0.904595V52.5369C0.904595 52.6426 0.910129 52.7135 0.921197 52.7497C0.935031 52.783 0.968235 52.8025 1.02081 52.8081C1.04017 52.8109 1.06646 52.8122 1.09966 52.8122C1.13563 52.8122 1.16745 52.8122 1.19512 52.8122C1.19512 52.8262 1.19374 52.8442 1.19097 52.8665C1.19097 52.8887 1.18821 52.9068 1.18267 52.9207C1.17437 52.9485 1.16469 52.9652 1.15362 52.9708C1.14255 52.9764 1.13425 52.9791 1.12872 52.9791H0.406547Z" fill="black"/>
<path d="M5.11709 52.9791C5.08942 52.9791 5.07559 52.9652 5.07559 52.9374C5.07559 52.9263 5.07697 52.911 5.07974 52.8915C5.08251 52.8693 5.08942 52.8498 5.10049 52.8331C5.18903 52.822 5.25544 52.7942 5.29971 52.7497C5.34398 52.7052 5.38687 52.6342 5.42837 52.5369L6.45352 50.0669C6.46736 50.0335 6.49226 50.0168 6.52823 50.0168H6.56558L7.54508 52.5369C7.58382 52.6398 7.61702 52.7093 7.64469 52.7455C7.67236 52.7817 7.71248 52.8025 7.76505 52.8081C7.78442 52.8109 7.80794 52.8122 7.83561 52.8122C7.86328 52.8122 7.89095 52.8122 7.91862 52.8122C7.91862 52.8262 7.91723 52.8442 7.91446 52.8665C7.91446 52.8887 7.9117 52.9068 7.90616 52.9207C7.89786 52.9485 7.88818 52.9652 7.87711 52.9708C7.86604 52.9764 7.85774 52.9791 7.85221 52.9791H7.10929C7.08162 52.9791 7.06778 52.9652 7.06778 52.9374C7.06778 52.9263 7.06917 52.911 7.07193 52.8915C7.0747 52.8693 7.08162 52.8498 7.09268 52.8331C7.15909 52.8248 7.21028 52.8095 7.24625 52.7872C7.28222 52.765 7.30021 52.7288 7.30021 52.6787C7.30021 52.6454 7.28914 52.5981 7.267 52.5369L7.07193 52.0237H5.83096L5.61929 52.5369C5.58885 52.6148 5.57364 52.6718 5.57364 52.7079C5.57364 52.7413 5.58194 52.765 5.59854 52.7789C5.61791 52.7928 5.64281 52.8025 5.67325 52.8081C5.69262 52.8109 5.7189 52.8122 5.7521 52.8122C5.78807 52.8122 5.81989 52.8122 5.84756 52.8122C5.84756 52.8262 5.84618 52.8442 5.84341 52.8665C5.84341 52.8887 5.84065 52.9068 5.83511 52.9207C5.82681 52.9485 5.81713 52.9652 5.80606 52.9708C5.79499 52.9764 5.78669 52.9791 5.78116 52.9791H5.11709ZM5.90567 51.8359H7.00138L6.49503 50.5008C6.48119 50.4674 6.46736 50.4674 6.45352 50.5008L5.90567 51.8359Z" fill="black"/>
<path d="M9.97177 52.9791C9.9441 52.9791 9.93026 52.9652 9.93026 52.9374C9.93026 52.9263 9.93165 52.911 9.93441 52.8915C9.93718 52.8693 9.9441 52.8498 9.95517 52.8331C10.0686 52.8192 10.1475 52.7886 10.1917 52.7413C10.2388 52.694 10.2623 52.6189 10.2623 52.516V50.4841C10.2623 50.4118 10.254 50.3589 10.2374 50.3256C10.2208 50.2922 10.1904 50.2713 10.1461 50.263C10.1018 50.2518 10.0368 50.2463 9.95102 50.2463C9.95102 50.2324 9.9524 50.2143 9.95517 50.192C9.95793 50.1698 9.9607 50.1517 9.96347 50.1378C9.97177 50.1072 9.98145 50.0905 9.99252 50.0877C10.0064 50.0822 10.0147 50.0794 10.0174 50.0794H10.8018C10.8295 50.0794 10.8434 50.0933 10.8434 50.1211C10.8434 50.1322 10.8406 50.1489 10.8351 50.1712C10.8295 50.1906 10.8212 50.2087 10.8101 50.2254C10.7078 50.2393 10.6317 50.2644 10.5819 50.3005C10.5348 50.3339 10.5113 50.3993 10.5113 50.4966V52.516C10.5113 52.6217 10.5169 52.6954 10.5279 52.7371C10.5418 52.7789 10.575 52.8025 10.6275 52.8081C10.6469 52.8109 10.6801 52.8122 10.7271 52.8122C10.7769 52.8122 10.8157 52.8122 10.8434 52.8122C10.8434 52.8262 10.842 52.8442 10.8392 52.8665C10.8392 52.8887 10.8364 52.9068 10.8309 52.9207C10.8226 52.9485 10.8129 52.9652 10.8018 52.9708C10.7908 52.9764 10.7825 52.9791 10.7769 52.9791H9.97177Z" fill="black"/>
<path d="M13.065 52.9791C13.0373 52.9791 13.0234 52.9652 13.0234 52.9374C13.0234 52.9263 13.0248 52.911 13.0276 52.8915C13.0304 52.8693 13.0373 52.8498 13.0484 52.8331C13.1397 52.822 13.2061 52.797 13.2476 52.758C13.2918 52.7163 13.314 52.6426 13.314 52.5369V50.4841C13.314 50.4118 13.3084 50.3589 13.2974 50.3256C13.2891 50.2922 13.2656 50.2713 13.2268 50.263C13.1909 50.2518 13.13 50.2463 13.0442 50.2463C13.0442 50.2324 13.0456 50.2143 13.0484 50.192C13.0511 50.1698 13.0539 50.1517 13.0567 50.1378C13.065 50.0989 13.0829 50.0794 13.1106 50.0794H14.0361C14.2049 50.0794 14.3626 50.103 14.5093 50.1503C14.6559 50.1948 14.7749 50.2699 14.8662 50.3756C14.9575 50.4785 15.0032 50.6176 15.0032 50.7928C15.0032 50.9987 14.9451 51.1753 14.8289 51.3227C14.7154 51.4701 14.5563 51.5786 14.3516 51.6482C14.5065 51.9041 14.6338 52.1085 14.7334 52.2615C14.8358 52.4145 14.923 52.5299 14.9949 52.6078C15.0668 52.6829 15.1332 52.733 15.1941 52.758C15.2578 52.783 15.3297 52.7956 15.4099 52.7956C15.4099 52.8484 15.4002 52.8999 15.3809 52.9499C15.3477 52.9694 15.3103 52.9833 15.2688 52.9917C15.2301 52.9972 15.1886 53 15.1443 53C15.0751 53 15.006 52.9764 14.9368 52.9291C14.8676 52.8818 14.7915 52.7914 14.7085 52.6579L14.115 51.7066C14.0071 51.7261 13.8909 51.7358 13.7664 51.7358C13.7332 51.7358 13.6986 51.7344 13.6626 51.7316C13.6294 51.7288 13.5962 51.7261 13.563 51.7233V52.541C13.563 52.644 13.5685 52.7135 13.5796 52.7497C13.5934 52.783 13.6266 52.8025 13.6792 52.8081C13.6986 52.8109 13.7249 52.8122 13.7581 52.8122C13.794 52.8122 13.8259 52.8122 13.8535 52.8122C13.8535 52.8262 13.8521 52.8442 13.8494 52.8665C13.8494 52.8887 13.8466 52.9068 13.8411 52.9207C13.8328 52.9485 13.8231 52.9652 13.812 52.9708C13.801 52.9764 13.7927 52.9791 13.7871 52.9791H13.065ZM13.563 51.5147C13.6737 51.5341 13.7816 51.5439 13.8867 51.5439C14.05 51.5439 14.1952 51.5202 14.3225 51.4729C14.4498 51.4229 14.5508 51.3478 14.6255 51.2476C14.7002 51.1447 14.7376 51.014 14.7376 50.8554C14.7376 50.644 14.6587 50.4897 14.501 50.3923C14.346 50.2949 14.1482 50.2463 13.9075 50.2463C13.8355 50.2463 13.7622 50.2504 13.6875 50.2588C13.6045 50.2671 13.563 50.3089 13.563 50.384V51.5147Z" fill="black"/>
<path d="M20.5764 52.9791C20.5487 52.9791 20.5349 52.9652 20.5349 52.9374C20.5349 52.9263 20.5363 52.911 20.539 52.8915C20.5418 52.8693 20.5487 52.8498 20.5598 52.8331C20.6483 52.822 20.7147 52.7942 20.759 52.7497C20.8033 52.7052 20.8462 52.6342 20.8877 52.5369L21.9128 50.0669C21.9266 50.0335 21.9515 50.0168 21.9875 50.0168H22.0249L23.0044 52.5369C23.0431 52.6398 23.0763 52.7093 23.104 52.7455C23.1316 52.7817 23.1718 52.8025 23.2243 52.8081C23.2437 52.8109 23.2672 52.8122 23.2949 52.8122C23.3226 52.8122 23.3502 52.8122 23.3779 52.8122C23.3779 52.8262 23.3765 52.8442 23.3737 52.8665C23.3737 52.8887 23.371 52.9068 23.3654 52.9207C23.3571 52.9485 23.3475 52.9652 23.3364 52.9708C23.3253 52.9764 23.317 52.9791 23.3115 52.9791H22.5686C22.5409 52.9791 22.5271 52.9652 22.5271 52.9374C22.5271 52.9263 22.5284 52.911 22.5312 52.8915C22.534 52.8693 22.5409 52.8498 22.552 52.8331C22.6184 52.8248 22.6696 52.8095 22.7055 52.7872C22.7415 52.765 22.7595 52.7288 22.7595 52.6787C22.7595 52.6454 22.7484 52.5981 22.7263 52.5369L22.5312 52.0237H21.2902L21.0786 52.5369C21.0481 52.6148 21.0329 52.6718 21.0329 52.7079C21.0329 52.7413 21.0412 52.765 21.0578 52.7789C21.0772 52.7928 21.1021 52.8025 21.1325 52.8081C21.1519 52.8109 21.1782 52.8122 21.2114 52.8122C21.2474 52.8122 21.2792 52.8122 21.3068 52.8122C21.3068 52.8262 21.3055 52.8442 21.3027 52.8665C21.3027 52.8887 21.2999 52.9068 21.2944 52.9207C21.2861 52.9485 21.2764 52.9652 21.2653 52.9708C21.2543 52.9764 21.246 52.9791 21.2404 52.9791H20.5764ZM21.365 51.8359H22.4607L21.9543 50.5008C21.9405 50.4674 21.9266 50.4674 21.9128 50.5008L21.365 51.8359Z" fill="black"/>
<path d="M25.9704 52.9791C25.9428 52.9791 25.9289 52.9652 25.9289 52.9374C25.9289 52.9263 25.9303 52.911 25.9331 52.8915C25.9359 52.8693 25.9428 52.8498 25.9538 52.8331C26.0673 52.8192 26.1461 52.7886 26.1904 52.7413C26.2374 52.694 26.261 52.6189 26.261 52.516V50.2588H25.5637C25.5028 50.2588 25.4586 50.2755 25.4309 50.3089C25.4032 50.3395 25.3839 50.3867 25.3728 50.4507L25.3479 50.6009C25.3451 50.626 25.3299 50.6385 25.3022 50.6385C25.2856 50.6385 25.2649 50.6357 25.24 50.6301C25.2151 50.6246 25.1957 50.6162 25.1819 50.6051L25.2151 50.1295C25.2178 50.0961 25.2414 50.0794 25.2856 50.0794H27.4853C27.5296 50.0794 27.5531 50.0961 27.5559 50.1295L27.5891 50.6051C27.578 50.6162 27.5587 50.6246 27.531 50.6301C27.5061 50.6357 27.4853 50.6385 27.4687 50.6385C27.4438 50.6385 27.4286 50.626 27.4231 50.6009L27.3982 50.4507C27.3871 50.3867 27.3677 50.3395 27.3401 50.3089C27.3124 50.2755 27.2681 50.2588 27.2073 50.2588H26.51V52.516C26.51 52.6217 26.5155 52.6954 26.5266 52.7371C26.5404 52.7789 26.5736 52.8025 26.6262 52.8081C26.6456 52.8109 26.6788 52.8122 26.7258 52.8122C26.7756 52.8122 26.8144 52.8122 26.842 52.8122C26.842 52.8262 26.8406 52.8442 26.8379 52.8665C26.8379 52.8887 26.8351 52.9068 26.8296 52.9207C26.8213 52.9485 26.8116 52.9652 26.8005 52.9708C26.7895 52.9764 26.7812 52.9791 26.7756 52.9791H25.9704Z" fill="black"/>
<path d="M31.574 52.9833L29.7685 52.9791C29.7409 52.9791 29.727 52.9652 29.727 52.9374C29.727 52.9263 29.7284 52.911 29.7312 52.8915C29.734 52.8693 29.7409 52.8498 29.7519 52.8331C29.8433 52.822 29.9097 52.7942 29.9512 52.7497C29.9954 52.7052 30.0176 52.6273 30.0176 52.516V50.4841C30.0176 50.4118 30.012 50.3589 30.001 50.3256C29.9927 50.2922 29.9691 50.2713 29.9304 50.263C29.8944 50.2518 29.8336 50.2463 29.7478 50.2463C29.7478 50.2324 29.7492 50.2143 29.7519 50.192C29.7547 50.1698 29.7575 50.1517 29.7602 50.1378C29.7685 50.1072 29.7782 50.0905 29.7893 50.0877C29.8031 50.0822 29.8114 50.0794 29.8142 50.0794L31.5117 50.0752C31.556 50.0752 31.5795 50.0919 31.5823 50.1253L31.6155 50.5842C31.6044 50.5954 31.585 50.6037 31.5574 50.6093C31.5325 50.6148 31.5117 50.6176 31.4951 50.6176C31.4702 50.6176 31.455 50.6051 31.4495 50.5801L31.4246 50.4507C31.4135 50.3867 31.3941 50.3395 31.3665 50.3089C31.3388 50.2755 31.2945 50.2588 31.2336 50.2588L30.4119 50.2546C30.3565 50.2546 30.3178 50.2657 30.2956 50.288C30.2763 50.3075 30.2666 50.3464 30.2666 50.4048V51.3352H30.9348C31.0289 51.3352 31.0911 51.3241 31.1216 51.3019C31.1548 51.2796 31.1755 51.2212 31.1838 51.1266C31.2004 51.1155 31.217 51.1086 31.2336 51.1058C31.2502 51.103 31.2641 51.1016 31.2751 51.1016C31.3028 51.1016 31.3166 51.1155 31.3166 51.1433L31.3083 51.7942C31.3083 51.8137 31.2987 51.8248 31.2793 51.8276C31.2655 51.8304 31.2475 51.8331 31.2253 51.8359C31.206 51.8387 31.1894 51.8401 31.1755 51.8401C31.1672 51.7427 31.1506 51.6649 31.1257 51.6064C31.1036 51.5453 31.04 51.5147 30.9348 51.5147H30.2666V52.516C30.2666 52.6217 30.2804 52.6968 30.3081 52.7413C30.3358 52.783 30.3814 52.8039 30.4451 52.8039L31.2336 52.7997C31.3139 52.7997 31.3748 52.7858 31.4163 52.758C31.4605 52.7302 31.4951 52.6843 31.52 52.6203L31.5823 52.4576C31.5906 52.4326 31.6086 52.42 31.6362 52.42C31.6777 52.42 31.7123 52.4312 31.74 52.4534L31.6404 52.9332C31.6321 52.9666 31.6099 52.9833 31.574 52.9833Z" fill="black"/>
<path d="M35.7651 52.9833L33.9596 52.9791C33.932 52.9791 33.9181 52.9652 33.9181 52.9374C33.9181 52.9263 33.9195 52.911 33.9223 52.8915C33.9251 52.8693 33.932 52.8498 33.943 52.8331C34.0343 52.822 34.1008 52.7942 34.1423 52.7497C34.1865 52.7052 34.2087 52.6273 34.2087 52.516V50.4841C34.2087 50.4118 34.2031 50.3589 34.1921 50.3256C34.1838 50.2922 34.1602 50.2713 34.1215 50.263C34.0855 50.2518 34.0247 50.2463 33.9389 50.2463C33.9389 50.2324 33.9403 50.2143 33.943 50.192C33.9458 50.1698 33.9486 50.1517 33.9513 50.1378C33.9596 50.1072 33.9693 50.0905 33.9804 50.0877C33.9942 50.0822 34.0025 50.0794 34.0053 50.0794H34.7482C34.7759 50.0794 34.7897 50.0933 34.7897 50.1211C34.7897 50.1322 34.787 50.1489 34.7814 50.1712C34.7759 50.1906 34.7676 50.2087 34.7565 50.2254C34.632 50.2393 34.5504 50.2644 34.5116 50.3005C34.4757 50.3339 34.4577 50.3993 34.4577 50.4966V52.516C34.4577 52.6217 34.4715 52.6954 34.4992 52.7371C34.5269 52.7789 34.5725 52.7997 34.6362 52.7997L35.4081 52.7914C35.4884 52.7914 35.5506 52.7789 35.5949 52.7538C35.6419 52.726 35.6765 52.6787 35.6987 52.612L35.7734 52.3867C35.7817 52.3616 35.7997 52.3491 35.8273 52.3491C35.8688 52.3491 35.9034 52.3602 35.9311 52.3825L35.8315 52.9332C35.8232 52.9666 35.801 52.9833 35.7651 52.9833Z" fill="black"/>
<path d="M38.0895 52.9791C38.0618 52.9791 38.048 52.9652 38.048 52.9374C38.048 52.9263 38.0493 52.911 38.0521 52.8915C38.0549 52.8693 38.0618 52.8498 38.0729 52.8331C38.1863 52.8192 38.2652 52.7886 38.3094 52.7413C38.3565 52.694 38.38 52.6189 38.38 52.516V50.4841C38.38 50.4118 38.3717 50.3589 38.3551 50.3256C38.3385 50.2922 38.308 50.2713 38.2638 50.263C38.2195 50.2518 38.1545 50.2463 38.0687 50.2463C38.0687 50.2324 38.0701 50.2143 38.0729 50.192C38.0756 50.1698 38.0784 50.1517 38.0812 50.1378C38.0895 50.1072 38.0991 50.0905 38.1102 50.0877C38.124 50.0822 38.1323 50.0794 38.1351 50.0794H38.9195C38.9472 50.0794 38.961 50.0933 38.961 50.1211C38.961 50.1322 38.9583 50.1489 38.9527 50.1712C38.9472 50.1906 38.9389 50.2087 38.9278 50.2254C38.8255 50.2393 38.7494 50.2644 38.6996 50.3005C38.6525 50.3339 38.629 50.3993 38.629 50.4966V52.516C38.629 52.6217 38.6345 52.6954 38.6456 52.7371C38.6594 52.7789 38.6926 52.8025 38.7452 52.8081C38.7646 52.8109 38.7978 52.8122 38.8448 52.8122C38.8946 52.8122 38.9334 52.8122 38.961 52.8122C38.961 52.8262 38.9597 52.8442 38.9569 52.8665C38.9569 52.8887 38.9541 52.9068 38.9486 52.9207C38.9403 52.9485 38.9306 52.9652 38.9195 52.9708C38.9085 52.9764 38.9002 52.9791 38.8946 52.9791H38.0895Z" fill="black"/>
<path d="M42.9881 52.9833L41.1826 52.9791C41.155 52.9791 41.1411 52.9652 41.1411 52.9374C41.1411 52.9263 41.1425 52.911 41.1453 52.8915C41.1481 52.8693 41.155 52.8498 41.166 52.8331C41.2574 52.822 41.3238 52.7942 41.3653 52.7497C41.4095 52.7052 41.4317 52.6273 41.4317 52.516V50.4841C41.4317 50.4118 41.4261 50.3589 41.4151 50.3256C41.4068 50.2922 41.3832 50.2713 41.3445 50.263C41.3085 50.2518 41.2477 50.2463 41.1619 50.2463C41.1619 50.2324 41.1633 50.2143 41.166 50.192C41.1688 50.1698 41.1716 50.1517 41.1743 50.1378C41.1826 50.1072 41.1923 50.0905 41.2034 50.0877C41.2172 50.0822 41.2255 50.0794 41.2283 50.0794L42.9258 50.0752C42.9701 50.0752 42.9936 50.0919 42.9964 50.1253L43.0296 50.5842C43.0185 50.5954 42.9991 50.6037 42.9715 50.6093C42.9466 50.6148 42.9258 50.6176 42.9092 50.6176C42.8843 50.6176 42.8691 50.6051 42.8636 50.5801L42.8387 50.4507C42.8276 50.3867 42.8082 50.3395 42.7806 50.3089C42.7529 50.2755 42.7086 50.2588 42.6477 50.2588L41.826 50.2546C41.7706 50.2546 41.7319 50.2657 41.7097 50.288C41.6904 50.3075 41.6807 50.3464 41.6807 50.4048V51.3352H42.3489C42.443 51.3352 42.5052 51.3241 42.5357 51.3019C42.5689 51.2796 42.5896 51.2212 42.5979 51.1266C42.6145 51.1155 42.6311 51.1086 42.6477 51.1058C42.6643 51.103 42.6782 51.1016 42.6892 51.1016C42.7169 51.1016 42.7307 51.1155 42.7307 51.1433L42.7224 51.7942C42.7224 51.8137 42.7128 51.8248 42.6934 51.8276C42.6796 51.8304 42.6616 51.8331 42.6394 51.8359C42.6201 51.8387 42.6035 51.8401 42.5896 51.8401C42.5813 51.7427 42.5647 51.6649 42.5398 51.6064C42.5177 51.5453 42.4541 51.5147 42.3489 51.5147H41.6807V52.516C41.6807 52.6217 41.6945 52.6968 41.7222 52.7413C41.7499 52.783 41.7955 52.8039 41.8592 52.8039L42.6477 52.7997C42.728 52.7997 42.7888 52.7858 42.8304 52.758C42.8746 52.7302 42.9092 52.6843 42.9341 52.6203L42.9964 52.4576C43.0047 52.4326 43.0227 52.42 43.0503 52.42C43.0918 52.42 43.1264 52.4312 43.1541 52.4534L43.0545 52.9332C43.0462 52.9666 43.024 52.9833 42.9881 52.9833Z" fill="black"/>
<path d="M45.3737 52.9791C45.3461 52.9791 45.3322 52.9652 45.3322 52.9374C45.3322 52.9263 45.3336 52.911 45.3364 52.8915C45.3392 52.8693 45.3461 52.8498 45.3571 52.8331C45.4485 52.822 45.5149 52.797 45.5564 52.758C45.6006 52.7163 45.6228 52.6426 45.6228 52.5369V50.4841C45.6228 50.4118 45.6172 50.3589 45.6062 50.3256C45.5979 50.2922 45.5743 50.2713 45.5356 50.263C45.4996 50.2518 45.4388 50.2463 45.353 50.2463C45.353 50.2324 45.3544 50.2143 45.3571 50.192C45.3599 50.1698 45.3627 50.1517 45.3654 50.1378C45.3737 50.0989 45.3917 50.0794 45.4194 50.0794H46.3449C46.5137 50.0794 46.6714 50.103 46.8181 50.1503C46.9647 50.1948 47.0837 50.2699 47.175 50.3756C47.2663 50.4785 47.312 50.6176 47.312 50.7928C47.312 50.9987 47.2539 51.1753 47.1377 51.3227C47.0242 51.4701 46.8651 51.5786 46.6604 51.6482C46.8153 51.9041 46.9426 52.1085 47.0422 52.2615C47.1446 52.4145 47.2317 52.5299 47.3037 52.6078C47.3756 52.6829 47.442 52.733 47.5029 52.758C47.5665 52.783 47.6385 52.7956 47.7187 52.7956C47.7187 52.8484 47.709 52.8999 47.6897 52.9499C47.6565 52.9694 47.6191 52.9833 47.5776 52.9917C47.5389 52.9972 47.4974 53 47.4531 53C47.3839 53 47.3147 52.9764 47.2456 52.9291C47.1764 52.8818 47.1003 52.7914 47.0173 52.6579L46.4238 51.7066C46.3159 51.7261 46.1997 51.7358 46.0752 51.7358C46.042 51.7358 46.0074 51.7344 45.9714 51.7316C45.9382 51.7288 45.905 51.7261 45.8718 51.7233V52.541C45.8718 52.644 45.8773 52.7135 45.8884 52.7497C45.9022 52.783 45.9354 52.8025 45.988 52.8081C46.0074 52.8109 46.0337 52.8122 46.0669 52.8122C46.1028 52.8122 46.1346 52.8122 46.1623 52.8122C46.1623 52.8262 46.1609 52.8442 46.1582 52.8665C46.1582 52.8887 46.1554 52.9068 46.1499 52.9207C46.1416 52.9485 46.1319 52.9652 46.1208 52.9708C46.1097 52.9764 46.1014 52.9791 46.0959 52.9791H45.3737ZM45.8718 51.5147C45.9825 51.5341 46.0904 51.5439 46.1955 51.5439C46.3588 51.5439 46.504 51.5202 46.6313 51.4729C46.7586 51.4229 46.8596 51.3478 46.9343 51.2476C47.009 51.1447 47.0464 51.014 47.0464 50.8554C47.0464 50.644 46.9675 50.4897 46.8098 50.3923C46.6548 50.2949 46.457 50.2463 46.2163 50.2463C46.1443 50.2463 46.071 50.2504 45.9963 50.2588C45.9133 50.2671 45.8718 50.3089 45.8718 50.384V51.5147Z" fill="black"/>
<path d="M22.8684 41.2688C22.6302 41.9872 22.3523 42.6657 21.9949 43.3043C21.0024 45.1003 19.6128 46.5371 17.8262 47.5748C17.3895 47.8143 16.9528 48.0139 16.5161 48.2134H25.2108L22.8684 41.2688Z" fill="black"/>
<path d="M27.1959 48.2135H37.7169L32.9527 34.4439L27.1959 48.2135Z" fill="black"/>
<path d="M7.58313 27.2996C6.43177 27.9382 5.51862 28.7763 4.84369 29.814C4.12905 30.8517 3.65262 32.0491 3.2953 33.3263C2.97769 34.6034 2.81888 35.8806 2.81888 37.1977C2.81888 38.5148 2.97769 39.8319 3.2953 41.1091C3.61292 42.3862 4.12905 43.5836 4.84369 44.6612C5.55832 45.7388 6.51118 46.577 7.66254 47.2155C8.8139 47.8541 10.2035 48.1734 11.8313 48.1734C13.459 48.1734 14.8089 47.8541 15.9206 47.2555C17.0322 46.6568 17.9454 45.8186 18.6203 44.8208C19.2953 43.7831 19.7717 42.6656 20.0893 41.3485C20.4069 40.0714 20.5657 38.7543 20.5657 37.3973C20.5657 36.0004 20.4069 34.6833 20.0893 33.3662C20.0099 33.0469 19.9305 32.7675 19.8114 32.4482L19.732 32.2486C19.4144 31.3706 19.0173 30.5324 18.5409 29.7741C17.8263 28.7364 16.9131 27.8983 15.8015 27.2597C14.6501 26.6211 13.3002 26.3417 11.6725 26.3417C10.0844 26.3816 8.73449 26.661 7.58313 27.2996Z" fill="black"/>
<path d="M45.1413 25.4238C45.5781 25.4238 46.0148 25.4637 46.4912 25.4637C46.9279 25.4637 47.2852 25.4637 47.4838 25.4637C47.6426 25.4637 47.8411 25.4637 47.9999 25.4637V24.2663C46.9279 24.2663 45.8163 24.2663 44.5458 24.2663C43.2356 24.2663 37.0024 24.2663 35.6922 24.2663C34.382 24.2663 33.1513 24.2663 32.0396 24.2663C31.722 24.2663 31.2853 24.2663 30.8089 24.2663C30.2927 24.2663 29.8163 24.3062 29.3002 24.3062C28.784 24.3062 28.387 24.3062 28.0297 24.3062C27.99 24.0668 27.99 23.8273 28.0297 23.5878C28.8238 23.508 29.4193 23.4282 29.7766 23.3484C30.1339 23.2685 30.3324 23.1089 30.4515 22.8295C30.5309 22.5501 30.5706 22.1111 30.5706 21.5124V2.35479C30.5706 1.63638 30.5309 1.11753 30.4118 0.838146C30.3324 0.518853 30.0942 0.319294 29.7369 0.199559C29.459 0.119735 29.0223 0.0399117 28.4664 0H21.32C21.3597 0.718411 21.3995 1.55656 21.4392 2.51444C21.4789 3.59206 21.5583 4.54994 21.598 5.428C21.4392 5.46791 21.3598 5.46791 21.2406 5.46791C21.1612 5.46791 21.0421 5.46791 20.923 5.46791C20.6848 3.7517 19.9305 2.43462 18.66 1.43682C17.4292 0.518852 15.6823 0.0399117 13.3796 0H12.9032C11.0372 0.0399117 9.48881 0.319294 8.21834 0.91797C6.90817 1.51665 5.83621 2.35479 5.04217 3.43241C4.24813 4.51003 3.6923 5.70738 3.33498 7.06438C2.97766 8.42138 2.81885 9.8582 2.81885 11.3349C2.81885 13.6897 3.21587 15.7651 3.97021 17.5612C4.76426 19.3572 5.91562 20.7541 7.54341 21.712C9.13149 22.7098 11.1166 23.1887 13.5384 23.1887C14.2928 23.1887 15.1662 23.1488 16.0794 23.0291C16.9925 22.9093 17.9057 22.7497 18.7791 22.5501V15.366C18.7791 14.6476 18.7394 14.1687 18.6203 13.8494C18.5409 13.5301 18.3027 13.3305 17.9057 13.2507C17.5086 13.1709 16.8734 13.091 16 13.0112C15.9603 12.7718 15.9603 12.5722 16 12.3327C16.3573 12.3327 16.794 12.3327 17.2704 12.3327C17.7866 12.3327 18.3027 12.3726 18.8188 12.3726C19.3349 12.3726 19.7717 12.3726 20.0893 12.3726C20.4466 12.3726 20.8436 12.3726 21.32 12.3726C21.7965 12.3726 22.2332 12.3327 22.6699 12.3327C23.1066 12.3327 23.4243 12.3327 23.6228 12.3327C23.6625 12.5323 23.6625 12.7718 23.6228 13.0112C22.9081 13.091 22.4317 13.1709 22.1141 13.2507C21.7965 13.3305 21.6377 13.5301 21.5583 13.7695C21.4789 14.009 21.4392 14.448 21.4392 15.0467V19.7563C21.4392 20.5545 21.4392 21.233 21.4789 21.7918C21.5186 22.3506 21.5583 22.7497 21.5583 22.9892C20.4069 23.3484 19.1364 23.6677 17.6675 23.8672C16.1985 24.0668 14.8089 24.1865 13.5384 24.1865C10.7196 24.1865 8.29775 23.7076 6.19353 22.7497C4.12902 21.7918 2.50123 20.355 1.34987 18.519C0.75434 17.5213 0.317617 16.4037 0 15.2064V35.1223C0.198511 33.6855 0.635234 32.3285 1.31017 31.1312C2.30272 29.2952 3.6923 27.8983 5.4789 26.8606C7.26549 25.8229 9.40941 25.304 11.8312 25.304C13.1414 25.304 18.5409 25.3839 19.0967 25.3839C19.5732 25.3839 20.2084 25.3839 20.923 25.344C21.6377 25.304 22.2729 25.304 22.7493 25.304C22.789 25.5435 22.789 25.7431 22.7493 25.9825C21.995 26.0624 21.4789 26.1023 21.1612 26.1821C20.8833 26.2619 20.7245 26.4216 20.7245 26.7409C20.7245 26.9803 20.8039 27.3395 21.0024 27.8185L27.0372 45.5792L32.3969 32.8474L30.928 28.5768C30.6501 27.7786 30.4515 27.2198 30.253 26.8606C30.0942 26.5413 29.856 26.3018 29.5384 26.222C29.2605 26.1422 28.7841 26.0624 28.1488 26.0224C28.1091 25.783 28.1091 25.5834 28.1488 25.344C28.7046 25.344 29.3002 25.3439 29.9354 25.3839C30.5706 25.4238 31.1662 25.4238 31.722 25.4238C32.2381 25.4238 32.8734 25.4238 33.6277 25.3839C34.382 25.3439 35.0173 25.344 35.5731 25.344C35.6128 25.5834 35.6128 25.783 35.5731 26.0224C34.6997 26.1023 34.0644 26.1821 33.7468 26.222C33.4292 26.3018 33.2307 26.5014 33.2307 26.8207C33.2307 27.0602 33.3101 27.3794 33.4689 27.8584L39.4639 45.6191L45.856 28.2176C45.9751 27.8983 46.0545 27.6588 46.1339 27.4194C46.2133 27.2198 46.253 27.0202 46.253 26.8606C46.253 26.5413 46.0942 26.3417 45.7766 26.222C45.4589 26.1023 44.9031 26.0224 44.1091 25.9825C44.0694 25.7431 44.0694 25.5435 44.1091 25.304C44.3473 25.3839 44.7046 25.3839 45.1413 25.4238Z" fill="black"/>
<path d="M47.9206 27.0203C47.6824 27.4194 47.4045 28.0181 47.0472 28.8562L39.5435 48.1735H47.9603V26.9405C48 26.9804 47.9603 27.0203 47.9206 27.0203Z" fill="black"/>
<path d="M5.28059 47.6147C3.5337 46.617 2.18383 45.22 1.27068 43.4639C0.635443 42.3065 0.238421 41.0293 0.0399107 39.6324V48.2134H6.55106C6.11434 48.0538 5.67761 47.8542 5.28059 47.6147Z" fill="black"/>
<path d="M34.1837 0.199559C33.8263 0.279382 33.6278 0.439029 33.5087 0.718411C33.4293 0.957882 33.3896 1.39691 33.3896 2.0355V21.0734C33.3896 21.6721 33.3896 22.151 33.3896 22.4703C33.3896 22.8295 33.3896 23.0291 33.4293 23.1488H43.5534C44.3871 23.1488 45.062 23.1089 45.5782 22.9892C46.0943 22.8694 46.531 22.63 46.8089 22.2708C47.0869 21.9914 47.3648 21.5523 47.6427 20.9936C47.7618 20.7541 47.8809 20.5146 48 20.2353V0H35.6129C34.9777 0.0798235 34.5013 0.119735 34.1837 0.199559Z" fill="black"/>
<path d="M1.27068 5.06879C2.38234 3.11312 3.93072 1.63638 5.95553 0.558764C6.35255 0.359206 6.78927 0.159647 7.226 0H0.0399107V8.34155C0.317826 7.1442 0.714847 6.06658 1.27068 5.06879Z" fill="black"/>
</svg>
